<svg xmlns="http://www.w3.org/2000/svg" id="viewer" style="" transform="scale(1, -1) translate(0, -0.35)" width="64.77mm" height="34.29mm" viewBox="-1.15 -0.5 2.55 1.35" xmlns:xlink="http://www.w3.org/1999/xlink"><rect class="background" x="-1.15" y="-0.5" fill="#00000000" width="2.55" height="1.35">
            </rect><g class="shapes"><!--?lit$608727873$--><!---->
    <g id="interior">
      <!--?lit$608727873$--><!---->
        <path fill-rule="evenodd" stroke-linecap="round" stroke-linejoin="round" d="M -0.75,0.75L 1.05,0.75L 1.05,-0.45L -0.75,-0.45" fill="#002d00" fill-opacity="1"/>
      <!---->
      <g><!--?lit$608727873$--></g>
    </g>
  <!----><!---->
    <g id="F.Cu">
      <!--?lit$608727873$--><!---->
        <path fill-rule="evenodd" stroke-linecap="round" stroke-linejoin="round" d="M 0.4205,-0.288L 0.48,-0.288L 0.48,-0.312L 0.4205,-0.312L 0.4205,-0.288" fill="#ff8c00" fill-opacity="0.8"/>
      <!----><!---->
        <path fill-rule="evenodd" stroke-linecap="round" stroke-linejoin="round" d="M 0.72,-0.288L 0.7795,-0.288L 0.7795,-0.312L 0.72,-0.312L 0.72,-0.288" fill="#ff8c00" fill-opacity="0.8"/>
      <!----><!---->
        <path fill-rule="evenodd" stroke-linecap="round" stroke-linejoin="round" d="M -0.492,0.634L -0.42800000000000005,0.634L -0.42800000000000005,0.566L -0.492,0.566L -0.492,0.634" fill="#ff8c00" fill-opacity="0.8"/>
      <!----><!---->
        <path fill-rule="evenodd" stroke-linecap="round" stroke-linejoin="round" d="M -0.372,0.634L -0.30800000000000005,0.634L -0.30800000000000005,0.566L -0.372,0.566L -0.372,0.634" fill="#ff8c00" fill-opacity="0.8"/>
      <!----><!---->
        <path fill-rule="evenodd" stroke-linecap="round" stroke-linejoin="round" d="M 0.516,0.10800000000000004L 0.516,0.172L 0.5840000000000001,0.172L 0.5840000000000001,0.10800000000000004L 0.516,0.10800000000000004" fill="#ff8c00" fill-opacity="0.8"/>
      <!----><!---->
        <path fill-rule="evenodd" stroke-linecap="round" stroke-linejoin="round" d="M 0.516,0.22800000000000004L 0.516,0.292L 0.5840000000000001,0.292L 0.5840000000000001,0.22800000000000004L 0.516,0.22800000000000004" fill="#ff8c00" fill-opacity="0.8"/>
      <!----><!---->
        <path fill-rule="evenodd" stroke-linecap="round" stroke-linejoin="round" d="M -0.3921,0.47240000000000004L -0.3921,0.47309999999999997L -0.3922,0.4738L -0.3923,0.47450000000000003L -0.39239999999999997,0.47519999999999996L -0.3926,0.4758L -0.393,0.47719999999999996L -0.3932,0.4778L -0.3935,0.47850000000000004L -0.39380000000000004,0.47919999999999996L -0.3943,0.48040000000000005L -0.3947,0.481L -0.395,0.48160000000000003L -0.3971,0.48440000000000005L -0.3981,0.48540000000000005L -0.3986,0.4859L -0.3991,0.48639999999999994L -0.4008,0.48760000000000003L -0.4014,0.488L -0.402,0.48829999999999996L -0.4032,0.489L -0.40449999999999997,0.48960000000000004L -0.4051,0.4898L -0.4058,0.4901L -0.4065,0.49019999999999997L -0.4072,0.49039999999999995L -0.4092,0.4908L -0.4099,0.4909L -0.4106,0.491L -0.4113,0.491L -0.41200000000000003,0.491L -0.47,0.491L -0.47,0.45099999999999996L -0.41200000000000003,0.45099999999999996L -0.4113,0.45099999999999996L -0.4106,0.45099999999999996L -0.4099,0.45110000000000006L -0.4092,0.45120000000000005L -0.4072,0.4516L -0.4065,0.4518L -0.4058,0.45189999999999997L -0.4051,0.45220000000000005L -0.40449999999999997,0.4524L -0.4032,0.45299999999999996L -0.402,0.4537L -0.4014,0.45399999999999996L -0.4008,0.4544L -0.3991,0.4556L -0.3986,0.45609999999999995L -0.3981,0.4566L -0.3971,0.4576L -0.395,0.46040000000000003L -0.3947,0.46099999999999997L -0.3943,0.4616L -0.39380000000000004,0.4628L -0.3935,0.4635L -0.3932,0.46419999999999995L -0.393,0.4648L -0.3926,0.46619999999999995L -0.39239999999999997,0.4668L -0.3923,0.4675L -0.3922,0.46819999999999995L -0.3921,0.4689L -0.3921,0.4696L -0.392,0.47030000000000005L -0.392,0.4717L -0.3921,0.47240000000000004" fill="#ff8c00" fill-opacity="0.8"/>
      <!----><!---->
        <path fill-rule="evenodd" stroke-linecap="round" stroke-linejoin="round" d="M -0.47,0.509L -0.47,0.5489999999999999L -0.41200000000000003,0.5489999999999999L -0.41200000000000003,0.509L -0.47,0.509" fill="#ff8c00" fill-opacity="0.8"/>
      <!----><!---->
        <path fill-rule="evenodd" stroke-linecap="round" stroke-linejoin="round" d="M -0.588,0.509L -0.588,0.549L -0.53,0.5489999999999999L -0.53,0.509L -0.588,0.509" fill="#ff8c00" fill-opacity="0.8"/>
      <!----><!---->
        <path fill-rule="evenodd" stroke-linecap="round" stroke-linejoin="round" d="M -0.588,0.45099999999999996L -0.588,0.491L -0.53,0.491L -0.53,0.45099999999999996L -0.588,0.45099999999999996" fill="#ff8c00" fill-opacity="0.8"/>
      <!----><!---->
        <path fill-rule="evenodd" stroke-linecap="round" stroke-linejoin="round" d="M -0.35885826771653545,0.481496062992126L -0.240748031496063,0.481496062992126L -0.240748031496063,0.418503937007874L -0.35885826771653545,0.418503937007874L -0.35885826771653545,0.481496062992126" fill="#ff8c00" fill-opacity="0.8"/>
      <!----><!---->
        <path fill-rule="evenodd" stroke-linecap="round" stroke-linejoin="round" d="M -0.35885826771653545,0.381496062992126L -0.240748031496063,0.381496062992126L -0.240748031496063,0.31850393700787405L -0.35885826771653545,0.31850393700787405L -0.35885826771653545,0.381496062992126" fill="#ff8c00" fill-opacity="0.8"/>
      <!----><!---->
        <path fill-rule="evenodd" stroke-linecap="round" stroke-linejoin="round" d="M -0.35885826771653545,0.281496062992126L -0.240748031496063,0.281496062992126L -0.240748031496063,0.21850393700787402L -0.35885826771653545,0.21850393700787402L -0.35885826771653545,0.281496062992126" fill="#ff8c00" fill-opacity="0.8"/>
      <!----><!---->
        <path fill-rule="evenodd" stroke-linecap="round" stroke-linejoin="round" d="M -0.35885826771653545,0.18149606299212598L -0.240748031496063,0.18149606299212598L -0.240748031496063,0.11850393700787401L -0.35885826771653545,0.11850393700787401L -0.35885826771653545,0.18149606299212598" fill="#ff8c00" fill-opacity="0.8"/>
      <!----><!---->
        <path fill-rule="evenodd" stroke-linecap="round" stroke-linejoin="round" d="M -0.35885826771653545,0.08149606299212597L -0.240748031496063,0.08149606299212597L -0.240748031496063,0.018503937007874005L -0.35885826771653545,0.018503937007874005L -0.35885826771653545,0.08149606299212597" fill="#ff8c00" fill-opacity="0.8"/>
      <!----><!---->
        <path fill-rule="evenodd" stroke-linecap="round" stroke-linejoin="round" d="M -0.35885826771653545,-0.018503937007874033L -0.240748031496063,-0.018503937007874033L -0.240748031496063,-0.081496062992126L -0.35885826771653545,-0.081496062992126L -0.35885826771653545,-0.018503937007874033" fill="#ff8c00" fill-opacity="0.8"/>
      <!----><!---->
        <path fill-rule="evenodd" stroke-linecap="round" stroke-linejoin="round" d="M -0.35885826771653545,-0.11850393700787401L -0.240748031496063,-0.11850393700787401L -0.240748031496063,-0.18149606299212598L -0.35885826771653545,-0.18149606299212598L -0.35885826771653545,-0.11850393700787401" fill="#ff8c00" fill-opacity="0.8"/>
      <!----><!---->
        <path fill-rule="evenodd" stroke-linecap="round" stroke-linejoin="round" d="M 0.24094488188976376,-0.11850393700787401L 0.3590551181102362,-0.11850393700787401L 0.3590551181102362,-0.18149606299212598L 0.24094488188976376,-0.18149606299212598L 0.24094488188976376,-0.11850393700787401" fill="#ff8c00" fill-opacity="0.8"/>
      <!----><!---->
        <path fill-rule="evenodd" stroke-linecap="round" stroke-linejoin="round" d="M 0.24094488188976376,-0.018503937007874033L 0.3590551181102362,-0.018503937007874033L 0.3590551181102362,-0.081496062992126L 0.24094488188976376,-0.081496062992126L 0.24094488188976376,-0.018503937007874033" fill="#ff8c00" fill-opacity="0.8"/>
      <!----><!---->
        <path fill-rule="evenodd" stroke-linecap="round" stroke-linejoin="round" d="M 0.24094488188976376,0.08149606299212597L 0.3590551181102362,0.08149606299212597L 0.3590551181102362,0.018503937007874005L 0.24094488188976376,0.018503937007874005L 0.24094488188976376,0.08149606299212597" fill="#ff8c00" fill-opacity="0.8"/>
      <!----><!---->
        <path fill-rule="evenodd" stroke-linecap="round" stroke-linejoin="round" d="M 0.24094488188976376,0.18149606299212598L 0.3590551181102362,0.18149606299212598L 0.3590551181102362,0.11850393700787401L 0.24094488188976376,0.11850393700787401L 0.24094488188976376,0.18149606299212598" fill="#ff8c00" fill-opacity="0.8"/>
      <!----><!---->
        <path fill-rule="evenodd" stroke-linecap="round" stroke-linejoin="round" d="M 0.24094488188976376,0.281496062992126L 0.3590551181102362,0.281496062992126L 0.3590551181102362,0.21850393700787402L 0.24094488188976376,0.21850393700787402L 0.24094488188976376,0.281496062992126" fill="#ff8c00" fill-opacity="0.8"/>
      <!----><!---->
        <path fill-rule="evenodd" stroke-linecap="round" stroke-linejoin="round" d="M 0.24094488188976376,0.381496062992126L 0.3590551181102362,0.381496062992126L 0.3590551181102362,0.31850393700787405L 0.24094488188976376,0.31850393700787405L 0.24094488188976376,0.381496062992126" fill="#ff8c00" fill-opacity="0.8"/>
      <!----><!---->
        <path fill-rule="evenodd" stroke-linecap="round" stroke-linejoin="round" d="M 0.24094488188976376,0.481496062992126L 0.3590551181102362,0.481496062992126L 0.3590551181102362,0.418503937007874L 0.24094488188976376,0.418503937007874L 0.24094488188976376,0.481496062992126" fill="#ff8c00" fill-opacity="0.8"/>
      <!----><!---->
    <path stroke-linecap="round" stroke-linejoin="round" fill-rule="nonzero" fill="none" d="M 0.3,-0.15L 0.4,-0.15L 0.4,-0.3L 0.45025,-0.3" stroke-width="0.03" stroke="#ff8c00" stroke-opacity="0.8"/>
  <!----><!---->
    <path stroke-linecap="round" stroke-linejoin="round" fill-rule="nonzero" fill="none" d="M 0.55,0.14500000000000002L 0.55,-0.19L 0.45025,-0.19L 0.45025,-0.3" stroke-width="0.03" stroke="#ff8c00" stroke-opacity="0.8"/>
  <!----><!---->
    <path stroke-linecap="round" stroke-linejoin="round" fill-rule="nonzero" fill="none" d="M 0.55,0.255L 0.55,0.35L 0.3,0.35" stroke-width="0.03" stroke="#ff8c00" stroke-opacity="0.8"/>
  <!----><!---->
    <path stroke-linecap="round" stroke-linejoin="round" fill-rule="nonzero" fill="none" d="M 0.3,0.44999999999999996L 0.8297499999999999,0.44999999999999996L 0.8297499999999999,-0.3L 0.7497499999999999,-0.3" stroke-width="0.03" stroke="#ff8c00" stroke-opacity="0.8"/>
  <!----><!---->
    <path stroke-linecap="round" stroke-linejoin="round" fill-rule="nonzero" fill="none" d="M -0.441,0.529L -0.455,0.6" stroke-width="0.03" stroke="#ff8c00" stroke-opacity="0.8"/>
  <!----><!---->
    <path stroke-linecap="round" stroke-linejoin="round" fill-rule="nonzero" fill="none" d="M -0.34500000000000003,0.6L 0,0.6L 0,0.35L 0.3,0.35L 0.3,0.35L 0.3,0.35" stroke-width="0.03" stroke="#ff8c00" stroke-opacity="0.8"/>
  <!----><!---->
    <path stroke-linecap="round" stroke-linejoin="round" fill-rule="nonzero" fill="none" d="M -0.5589999999999999,0.529L -0.619,0.529L -0.619,0.15L -0.2998031496062992,0.15" stroke-width="0.03" stroke="#ff8c00" stroke-opacity="0.8"/>
  <!----><!---->
    <path stroke-linecap="round" stroke-linejoin="round" fill-rule="nonzero" fill="none" d="M -0.5589999999999999,0.471L -0.5589999999999999,0.25L -0.2998031496062992,0.25" stroke-width="0.03" stroke="#ff8c00" stroke-opacity="0.8"/>
  <!----><!---->
    <path stroke-linecap="round" stroke-linejoin="round" fill-rule="nonzero" fill="none" d="M -0.441,0.471L -0.441,0.35L -0.2998031496062992,0.35" stroke-width="0.03" stroke="#ff8c00" stroke-opacity="0.8"/>
  <!----><!---->
    <path stroke-linecap="round" stroke-linejoin="round" fill-rule="nonzero" fill="none" d="M 0,0.6L 1.3,0.6" stroke-width="0.03" stroke="#ff8c00" stroke-opacity="0.8"/>
  <!----><!---->
    <path stroke-linecap="round" stroke-linejoin="round" fill-rule="nonzero" fill="none" d="M 0.8999999999999999,0.6L 0.8999999999999999,-0.15L 1.3,-0.15" stroke-width="0.03" stroke="#ff8c00" stroke-opacity="0.8"/>
  <!----><!---->
    <path stroke-linecap="round" stroke-linejoin="round" fill-rule="nonzero" fill="none" d="M -0.2998031496062992,-0.05000000000000002L -0.6998031496062993,-0.05000000000000002L -0.6998031496062993,0.6L -1.0498031496062992,0.6" stroke-width="0.03" stroke="#ff8c00" stroke-opacity="0.8"/>
  <!----><!---->
    <path stroke-linecap="round" stroke-linejoin="round" fill-rule="nonzero" fill="none" d="M -0.2998031496062992,-0.15L -1.0498031496062992,-0.15" stroke-width="0.03" stroke="#ff8c00" stroke-opacity="0.8"/>
  <!---->
      <g><!--?lit$608727873$--></g>
    </g>
  <!----><!---->
    <g id="F.Mask">
      <!--?lit$608727873$--><!---->
        <path fill-rule="evenodd" stroke-linecap="round" stroke-linejoin="round" d="M 0.4205,-0.288L 0.48,-0.288L 0.48,-0.312L 0.4205,-0.312L 0.4205,-0.288" fill="#000000" fill-opacity="0"/>
      <!----><!---->
        <path fill-rule="evenodd" stroke-linecap="round" stroke-linejoin="round" d="M 0.72,-0.288L 0.7795,-0.288L 0.7795,-0.312L 0.72,-0.312L 0.72,-0.288" fill="#000000" fill-opacity="0"/>
      <!----><!---->
        <path fill-rule="evenodd" stroke-linecap="round" stroke-linejoin="round" d="M -0.492,0.634L -0.42800000000000005,0.634L -0.42800000000000005,0.566L -0.492,0.566L -0.492,0.634" fill="#000000" fill-opacity="0"/>
      <!----><!---->
        <path fill-rule="evenodd" stroke-linecap="round" stroke-linejoin="round" d="M -0.372,0.634L -0.30800000000000005,0.634L -0.30800000000000005,0.566L -0.372,0.566L -0.372,0.634" fill="#000000" fill-opacity="0"/>
      <!----><!---->
        <path fill-rule="evenodd" stroke-linecap="round" stroke-linejoin="round" d="M 0.516,0.10800000000000004L 0.516,0.172L 0.5840000000000001,0.172L 0.5840000000000001,0.10800000000000004L 0.516,0.10800000000000004" fill="#000000" fill-opacity="0"/>
      <!----><!---->
        <path fill-rule="evenodd" stroke-linecap="round" stroke-linejoin="round" d="M 0.516,0.22800000000000004L 0.516,0.292L 0.5840000000000001,0.292L 0.5840000000000001,0.22800000000000004L 0.516,0.22800000000000004" fill="#000000" fill-opacity="0"/>
      <!----><!---->
        <path fill-rule="evenodd" stroke-linecap="round" stroke-linejoin="round" d="M -0.3921,0.47240000000000004L -0.3921,0.47309999999999997L -0.3922,0.4738L -0.3923,0.47450000000000003L -0.39239999999999997,0.47519999999999996L -0.3926,0.4758L -0.393,0.47719999999999996L -0.3932,0.4778L -0.3935,0.47850000000000004L -0.39380000000000004,0.47919999999999996L -0.3943,0.48040000000000005L -0.3947,0.481L -0.395,0.48160000000000003L -0.3971,0.48440000000000005L -0.3981,0.48540000000000005L -0.3986,0.4859L -0.3991,0.48639999999999994L -0.4008,0.48760000000000003L -0.4014,0.488L -0.402,0.48829999999999996L -0.4032,0.489L -0.40449999999999997,0.48960000000000004L -0.4051,0.4898L -0.4058,0.4901L -0.4065,0.49019999999999997L -0.4072,0.49039999999999995L -0.4092,0.4908L -0.4099,0.4909L -0.4106,0.491L -0.4113,0.491L -0.41200000000000003,0.491L -0.47,0.491L -0.47,0.45099999999999996L -0.41200000000000003,0.45099999999999996L -0.4113,0.45099999999999996L -0.4106,0.45099999999999996L -0.4099,0.45110000000000006L -0.4092,0.45120000000000005L -0.4072,0.4516L -0.4065,0.4518L -0.4058,0.45189999999999997L -0.4051,0.45220000000000005L -0.40449999999999997,0.4524L -0.4032,0.45299999999999996L -0.402,0.4537L -0.4014,0.45399999999999996L -0.4008,0.4544L -0.3991,0.4556L -0.3986,0.45609999999999995L -0.3981,0.4566L -0.3971,0.4576L -0.395,0.46040000000000003L -0.3947,0.46099999999999997L -0.3943,0.4616L -0.39380000000000004,0.4628L -0.3935,0.4635L -0.3932,0.46419999999999995L -0.393,0.4648L -0.3926,0.46619999999999995L -0.39239999999999997,0.4668L -0.3923,0.4675L -0.3922,0.46819999999999995L -0.3921,0.4689L -0.3921,0.4696L -0.392,0.47030000000000005L -0.392,0.4717L -0.3921,0.47240000000000004" fill="#000000" fill-opacity="0"/>
      <!----><!---->
        <path fill-rule="evenodd" stroke-linecap="round" stroke-linejoin="round" d="M -0.47,0.509L -0.47,0.5489999999999999L -0.41200000000000003,0.5489999999999999L -0.41200000000000003,0.509L -0.47,0.509" fill="#000000" fill-opacity="0"/>
      <!----><!---->
        <path fill-rule="evenodd" stroke-linecap="round" stroke-linejoin="round" d="M -0.588,0.509L -0.588,0.549L -0.53,0.5489999999999999L -0.53,0.509L -0.588,0.509" fill="#000000" fill-opacity="0"/>
      <!----><!---->
        <path fill-rule="evenodd" stroke-linecap="round" stroke-linejoin="round" d="M -0.588,0.45099999999999996L -0.588,0.491L -0.53,0.491L -0.53,0.45099999999999996L -0.588,0.45099999999999996" fill="#000000" fill-opacity="0"/>
      <!----><!---->
        <path fill-rule="evenodd" stroke-linecap="round" stroke-linejoin="round" d="M -0.35885826771653545,0.481496062992126L -0.240748031496063,0.481496062992126L -0.240748031496063,0.418503937007874L -0.35885826771653545,0.418503937007874L -0.35885826771653545,0.481496062992126" fill="#000000" fill-opacity="0"/>
      <!----><!---->
        <path fill-rule="evenodd" stroke-linecap="round" stroke-linejoin="round" d="M -0.35885826771653545,0.381496062992126L -0.240748031496063,0.381496062992126L -0.240748031496063,0.31850393700787405L -0.35885826771653545,0.31850393700787405L -0.35885826771653545,0.381496062992126" fill="#000000" fill-opacity="0"/>
      <!----><!---->
        <path fill-rule="evenodd" stroke-linecap="round" stroke-linejoin="round" d="M -0.35885826771653545,0.281496062992126L -0.240748031496063,0.281496062992126L -0.240748031496063,0.21850393700787402L -0.35885826771653545,0.21850393700787402L -0.35885826771653545,0.281496062992126" fill="#000000" fill-opacity="0"/>
      <!----><!---->
        <path fill-rule="evenodd" stroke-linecap="round" stroke-linejoin="round" d="M -0.35885826771653545,0.18149606299212598L -0.240748031496063,0.18149606299212598L -0.240748031496063,0.11850393700787401L -0.35885826771653545,0.11850393700787401L -0.35885826771653545,0.18149606299212598" fill="#000000" fill-opacity="0"/>
      <!----><!---->
        <path fill-rule="evenodd" stroke-linecap="round" stroke-linejoin="round" d="M -0.35885826771653545,0.08149606299212597L -0.240748031496063,0.08149606299212597L -0.240748031496063,0.018503937007874005L -0.35885826771653545,0.018503937007874005L -0.35885826771653545,0.08149606299212597" fill="#000000" fill-opacity="0"/>
      <!----><!---->
        <path fill-rule="evenodd" stroke-linecap="round" stroke-linejoin="round" d="M -0.35885826771653545,-0.018503937007874033L -0.240748031496063,-0.018503937007874033L -0.240748031496063,-0.081496062992126L -0.35885826771653545,-0.081496062992126L -0.35885826771653545,-0.018503937007874033" fill="#000000" fill-opacity="0"/>
      <!----><!---->
        <path fill-rule="evenodd" stroke-linecap="round" stroke-linejoin="round" d="M -0.35885826771653545,-0.11850393700787401L -0.240748031496063,-0.11850393700787401L -0.240748031496063,-0.18149606299212598L -0.35885826771653545,-0.18149606299212598L -0.35885826771653545,-0.11850393700787401" fill="#000000" fill-opacity="0"/>
      <!----><!---->
        <path fill-rule="evenodd" stroke-linecap="round" stroke-linejoin="round" d="M 0.24094488188976376,-0.11850393700787401L 0.3590551181102362,-0.11850393700787401L 0.3590551181102362,-0.18149606299212598L 0.24094488188976376,-0.18149606299212598L 0.24094488188976376,-0.11850393700787401" fill="#000000" fill-opacity="0"/>
      <!----><!---->
        <path fill-rule="evenodd" stroke-linecap="round" stroke-linejoin="round" d="M 0.24094488188976376,-0.018503937007874033L 0.3590551181102362,-0.018503937007874033L 0.3590551181102362,-0.081496062992126L 0.24094488188976376,-0.081496062992126L 0.24094488188976376,-0.018503937007874033" fill="#000000" fill-opacity="0"/>
      <!----><!---->
        <path fill-rule="evenodd" stroke-linecap="round" stroke-linejoin="round" d="M 0.24094488188976376,0.08149606299212597L 0.3590551181102362,0.08149606299212597L 0.3590551181102362,0.018503937007874005L 0.24094488188976376,0.018503937007874005L 0.24094488188976376,0.08149606299212597" fill="#000000" fill-opacity="0"/>
      <!----><!---->
        <path fill-rule="evenodd" stroke-linecap="round" stroke-linejoin="round" d="M 0.24094488188976376,0.18149606299212598L 0.3590551181102362,0.18149606299212598L 0.3590551181102362,0.11850393700787401L 0.24094488188976376,0.11850393700787401L 0.24094488188976376,0.18149606299212598" fill="#000000" fill-opacity="0"/>
      <!----><!---->
        <path fill-rule="evenodd" stroke-linecap="round" stroke-linejoin="round" d="M 0.24094488188976376,0.281496062992126L 0.3590551181102362,0.281496062992126L 0.3590551181102362,0.21850393700787402L 0.24094488188976376,0.21850393700787402L 0.24094488188976376,0.281496062992126" fill="#000000" fill-opacity="0"/>
      <!----><!---->
        <path fill-rule="evenodd" stroke-linecap="round" stroke-linejoin="round" d="M 0.24094488188976376,0.381496062992126L 0.3590551181102362,0.381496062992126L 0.3590551181102362,0.31850393700787405L 0.24094488188976376,0.31850393700787405L 0.24094488188976376,0.381496062992126" fill="#000000" fill-opacity="0"/>
      <!----><!---->
        <path fill-rule="evenodd" stroke-linecap="round" stroke-linejoin="round" d="M 0.24094488188976376,0.481496062992126L 0.3590551181102362,0.481496062992126L 0.3590551181102362,0.418503937007874L 0.24094488188976376,0.418503937007874L 0.24094488188976376,0.481496062992126" fill="#000000" fill-opacity="0"/>
      <!---->
      <g><!--?lit$608727873$--></g>
    </g>
  <!----><!---->
    <g class="drills"><!--?lit$608727873$--><!---->
        <circle fill="white" cx="-0.2998031496062992" cy="0.44999999999999996" r="0"/>
        <!----><!---->
        <circle fill="white" cx="-0.2998031496062992" cy="0.35" r="0"/>
        <!----><!---->
        <circle fill="white" cx="-0.2998031496062992" cy="0.25" r="0"/>
        <!----><!---->
        <circle fill="white" cx="-0.2998031496062992" cy="0.15" r="0"/>
        <!----><!---->
        <circle fill="white" cx="-0.2998031496062992" cy="0.04999999999999999" r="0"/>
        <!----><!---->
        <circle fill="white" cx="-0.2998031496062992" cy="-0.05000000000000002" r="0"/>
        <!----><!---->
        <circle fill="white" cx="-0.2998031496062992" cy="-0.15" r="0"/>
        <!----><!---->
        <circle fill="white" cx="0.3" cy="-0.15" r="0"/>
        <!----><!---->
        <circle fill="white" cx="0.3" cy="-0.05000000000000002" r="0"/>
        <!----><!---->
        <circle fill="white" cx="0.3" cy="0.04999999999999999" r="0"/>
        <!----><!---->
        <circle fill="white" cx="0.3" cy="0.15" r="0"/>
        <!----><!---->
        <circle fill="white" cx="0.3" cy="0.25" r="0"/>
        <!----><!---->
        <circle fill="white" cx="0.3" cy="0.35" r="0"/>
        <!----><!---->
        <circle fill="white" cx="0.3" cy="0.44999999999999996" r="0"/>
        <!----></g>
  <!----><!---->
    <g id="padLabels">
      <!--?lit$608727873$-->
      <g><!--?lit$608727873$--><!---->
    <text text-anchor="middle" x="0.45025" y="0.30705556" transform-origin="0.45025,-0.3" transform="scale(1, -1)" style="font: 0.02pt sans-serif;" fill="#ffff99" opacity="0.8980392156862745">
      <!--?lit$608727873$-->1
    </text>
  <!----><!---->
    <text text-anchor="middle" x="0.7497499999999999" y="0.30705556" transform-origin="0.7497499999999999,-0.3" transform="scale(1, -1)" style="font: 0.02pt sans-serif;" fill="#ffff99" opacity="0.8980392156862745">
      <!--?lit$608727873$-->2
    </text>
  <!----><!---->
    <text text-anchor="middle" x="-0.455" y="-0.59294444" transform-origin="-0.455,0.6" transform="scale(1, -1)" style="font: 0.02pt sans-serif;" fill="#ffff99" opacity="0.8980392156862745">
      <!--?lit$608727873$-->A
    </text>
  <!----><!---->
    <text text-anchor="middle" x="-0.34500000000000003" y="-0.59294444" transform-origin="-0.34500000000000003,0.6" transform="scale(1, -1)" style="font: 0.02pt sans-serif;" fill="#ffff99" opacity="0.8980392156862745">
      <!--?lit$608727873$-->C
    </text>
  <!----><!---->
    <text text-anchor="middle" x="0.55" y="-0.13794444000000003" transform-origin="0.55,0.14500000000000002" transform="scale(1, -1)" style="font: 0.02pt sans-serif;" fill="#ffff99" opacity="0.8980392156862745">
      <!--?lit$608727873$-->A
    </text>
  <!----><!---->
    <text text-anchor="middle" x="0.55" y="-0.24794444000000002" transform-origin="0.55,0.255" transform="scale(1, -1)" style="font: 0.02pt sans-serif;" fill="#ffff99" opacity="0.8980392156862745">
      <!--?lit$608727873$-->C
    </text>
  <!----><!---->
    <text text-anchor="middle" x="-0.441" y="-0.46394443999999996" transform-origin="-0.441,0.471" transform="scale(1, -1)" style="font: 0.02pt sans-serif;" fill="#ffff99" opacity="0.8980392156862745">
      <!--?lit$608727873$-->R
    </text>
  <!----><!---->
    <text text-anchor="middle" x="-0.441" y="-0.5219444400000001" transform-origin="-0.441,0.529" transform="scale(1, -1)" style="font: 0.02pt sans-serif;" fill="#ffff99" opacity="0.8980392156862745">
      <!--?lit$608727873$-->A
    </text>
  <!----><!---->
    <text text-anchor="middle" x="-0.5589999999999999" y="-0.5219444400000001" transform-origin="-0.5589999999999999,0.529" transform="scale(1, -1)" style="font: 0.02pt sans-serif;" fill="#ffff99" opacity="0.8980392156862745">
      <!--?lit$608727873$-->B
    </text>
  <!----><!---->
    <text text-anchor="middle" x="-0.5589999999999999" y="-0.46394443999999996" transform-origin="-0.5589999999999999,0.471" transform="scale(1, -1)" style="font: 0.02pt sans-serif;" fill="#ffff99" opacity="0.8980392156862745">
      <!--?lit$608727873$-->G
    </text>
  <!----><!---->
    <text text-anchor="middle" x="-0.2998031496062992" y="-0.44294443999999994" transform-origin="-0.2998031496062992,0.44999999999999996" transform="scale(1, -1)" style="font: 0.02pt sans-serif;" fill="#ffff99" opacity="0.8980392156862745">
      <!--?lit$608727873$-->0
    </text>
  <!----><!---->
    <text text-anchor="middle" x="-0.2998031496062992" y="-0.34294443999999996" transform-origin="-0.2998031496062992,0.35" transform="scale(1, -1)" style="font: 0.02pt sans-serif;" fill="#ffff99" opacity="0.8980392156862745">
      <!--?lit$608727873$-->1
    </text>
  <!----><!---->
    <text text-anchor="middle" x="-0.2998031496062992" y="-0.24294444" transform-origin="-0.2998031496062992,0.25" transform="scale(1, -1)" style="font: 0.02pt sans-serif;" fill="#ffff99" opacity="0.8980392156862745">
      <!--?lit$608727873$-->2
    </text>
  <!----><!---->
    <text text-anchor="middle" x="-0.2998031496062992" y="-0.14294444" transform-origin="-0.2998031496062992,0.15" transform="scale(1, -1)" style="font: 0.02pt sans-serif;" fill="#ffff99" opacity="0.8980392156862745">
      <!--?lit$608727873$-->3
    </text>
  <!----><!---->
    <text text-anchor="middle" x="-0.2998031496062992" y="-0.042944439999999987" transform-origin="-0.2998031496062992,0.04999999999999999" transform="scale(1, -1)" style="font: 0.02pt sans-serif;" fill="#ffff99" opacity="0.8980392156862745">
      <!--?lit$608727873$-->4
    </text>
  <!----><!---->
    <text text-anchor="middle" x="-0.2998031496062992" y="0.05705556000000002" transform-origin="-0.2998031496062992,-0.05000000000000002" transform="scale(1, -1)" style="font: 0.02pt sans-serif;" fill="#ffff99" opacity="0.8980392156862745">
      <!--?lit$608727873$-->5
    </text>
  <!----><!---->
    <text text-anchor="middle" x="-0.2998031496062992" y="0.15705555999999998" transform-origin="-0.2998031496062992,-0.15" transform="scale(1, -1)" style="font: 0.02pt sans-serif;" fill="#ffff99" opacity="0.8980392156862745">
      <!--?lit$608727873$-->6
    </text>
  <!----><!---->
    <text text-anchor="middle" x="0.3" y="0.15705555999999998" transform-origin="0.3,-0.15" transform="scale(1, -1)" style="font: 0.02pt sans-serif;" fill="#ffff99" opacity="0.8980392156862745">
      <!--?lit$608727873$-->7
    </text>
  <!----><!---->
    <text text-anchor="middle" x="0.3" y="0.05705556000000002" transform-origin="0.3,-0.05000000000000002" transform="scale(1, -1)" style="font: 0.02pt sans-serif;" fill="#ffff99" opacity="0.8980392156862745">
      <!--?lit$608727873$-->8
    </text>
  <!----><!---->
    <text text-anchor="middle" x="0.3" y="-0.042944439999999987" transform-origin="0.3,0.04999999999999999" transform="scale(1, -1)" style="font: 0.02pt sans-serif;" fill="#ffff99" opacity="0.8980392156862745">
      <!--?lit$608727873$-->9
    </text>
  <!----><!---->
    <text text-anchor="middle" x="0.3" y="-0.14294444" transform-origin="0.3,0.15" transform="scale(1, -1)" style="font: 0.02pt sans-serif;" fill="#ffff99" opacity="0.8980392156862745">
      <!--?lit$608727873$-->10
    </text>
  <!----><!---->
    <text text-anchor="middle" x="0.3" y="-0.24294444" transform-origin="0.3,0.25" transform="scale(1, -1)" style="font: 0.02pt sans-serif;" fill="#ffff99" opacity="0.8980392156862745">
      <!--?lit$608727873$-->3V3
    </text>
  <!----><!---->
    <text text-anchor="middle" x="0.3" y="-0.34294443999999996" transform-origin="0.3,0.35" transform="scale(1, -1)" style="font: 0.02pt sans-serif;" fill="#ffff99" opacity="0.8980392156862745">
      <!--?lit$608727873$-->GND
    </text>
  <!----><!---->
    <text text-anchor="middle" x="0.3" y="-0.44294443999999994" transform-origin="0.3,0.44999999999999996" transform="scale(1, -1)" style="font: 0.02pt sans-serif;" fill="#ffff99" opacity="0.8980392156862745">
      <!--?lit$608727873$-->5V
    </text>
  <!----></g>
    </g>
  <!----><!---->
    <g id="componentLabels">
      <!--?lit$608727873$-->
      <g><!--?lit$608727873$--><!---->
    <text text-anchor="middle" x="0.6" y="0.30881945" transform-origin="0.6,-0.3" transform="scale(1, -1)" style="font: 0.025pt sans-serif;" fill="#00e5e5" opacity="0.8980392156862745">
      <!--?lit$608727873$-->SW_TS09_63_25_CUD_Cok_a3R
    </text>
  <!----><!---->
    <text text-anchor="middle" x="-0.4" y="-0.59118055" transform-origin="-0.4,0.6" transform="scale(1, -1)" style="font: 0.025pt sans-serif;" fill="#00e5e5" opacity="0.8980392156862745">
      <!--?lit$608727873$-->LED_1206_gJs
    </text>
  <!----><!---->
    <text text-anchor="middle" x="0.55" y="-0.19118055" transform-origin="0.55,0.2" transform="scale(1, -1)" style="font: 0.025pt sans-serif;" fill="#00e5e5" opacity="0.8980392156862745">
      <!--?lit$608727873$-->LED_1206_5W3
    </text>
  <!----><!---->
    <text text-anchor="middle" x="-0.5" y="-0.49118055" transform-origin="-0.5,0.5" transform="scale(1, -1)" style="font: 0.025pt sans-serif;" fill="#00e5e5" opacity="0.8980392156862745">
      <!--?lit$608727873$-->LED_RGB_wdi
    </text>
  <!----><!---->
    <text text-anchor="middle" x="0" y="-0.14118055" transform-origin="0,0.15" transform="scale(1, -1)" style="font: 0.025pt sans-serif;" fill="#00e5e5" opacity="0.8980392156862745">
      <!--?lit$608727873$-->xiao_copper_2Op
    </text>
  <!----></g>
    </g>
  <!----></g><g class="paths"><!--?lit$608727873$--></g></svg>